<mxfile host="app.diagrams.net" modified="2023-06-28T11:53:05.288Z" agent="Mozilla/5.0 (Windows NT 10.0; Win64; x64) AppleWebKit/537.36 (KHTML, like Gecko) Chrome/114.0.0.0 Safari/537.36 Edg/114.0.1823.58" etag="4pbU9BQVnKIfB7vNmSI4" version="21.5.0" type="github">
  <diagram name="第 1 页" id="G135m4Lx8VYlhE3O21nD">
    <mxGraphModel dx="1186" dy="610" grid="1" gridSize="10" guides="1" tooltips="1" connect="1" arrows="1" fold="1" page="1" pageScale="1" pageWidth="827" pageHeight="1169" math="0" shadow="0">
      <root>
        <mxCell id="0" />
        <mxCell id="1" parent="0" />
        <mxCell id="2SnyUPF71sNNzRiDqaVv-3" style="edgeStyle=orthogonalEdgeStyle;rounded=0;orthogonalLoop=1;jettySize=auto;html=1;exitX=1;exitY=0.5;exitDx=0;exitDy=0;entryX=0;entryY=0.5;entryDx=0;entryDy=0;" edge="1" parent="1" source="2SnyUPF71sNNzRiDqaVv-1" target="2SnyUPF71sNNzRiDqaVv-2">
          <mxGeometry relative="1" as="geometry" />
        </mxCell>
        <mxCell id="2SnyUPF71sNNzRiDqaVv-1" value="在线实验平台" style="whiteSpace=wrap;html=1;aspect=fixed;" vertex="1" parent="1">
          <mxGeometry x="130" y="290" width="110" height="110" as="geometry" />
        </mxCell>
        <mxCell id="2SnyUPF71sNNzRiDqaVv-6" style="edgeStyle=orthogonalEdgeStyle;rounded=0;orthogonalLoop=1;jettySize=auto;html=1;exitX=0;exitY=0.75;exitDx=0;exitDy=0;entryX=1;entryY=0.75;entryDx=0;entryDy=0;" edge="1" parent="1" source="2SnyUPF71sNNzRiDqaVv-2" target="2SnyUPF71sNNzRiDqaVv-1">
          <mxGeometry relative="1" as="geometry" />
        </mxCell>
        <mxCell id="2SnyUPF71sNNzRiDqaVv-2" value="判题器&lt;br&gt;judgeserver" style="whiteSpace=wrap;html=1;aspect=fixed;" vertex="1" parent="1">
          <mxGeometry x="460" y="290" width="110" height="110" as="geometry" />
        </mxCell>
        <mxCell id="2SnyUPF71sNNzRiDqaVv-4" value="socket&lt;br&gt;传输测试用例、代码" style="text;html=1;align=center;verticalAlign=middle;resizable=0;points=[];autosize=1;strokeColor=none;fillColor=none;" vertex="1" parent="1">
          <mxGeometry x="285" y="300" width="130" height="40" as="geometry" />
        </mxCell>
        <mxCell id="2SnyUPF71sNNzRiDqaVv-7" value="返回测试结果" style="text;html=1;align=center;verticalAlign=middle;resizable=0;points=[];autosize=1;strokeColor=none;fillColor=none;" vertex="1" parent="1">
          <mxGeometry x="290" y="368" width="100" height="30" as="geometry" />
        </mxCell>
      </root>
    </mxGraphModel>
  </diagram>
</mxfile>
